<?xml version="1.0" standalone="no"?><!DOCTYPE svg PUBLIC "-//W3C//DTD SVG 1.1//EN" "http://www.w3.org/Graphics/SVG/1.1/DTD/svg11.dtd"><svg t="1710989010300" class="icon" viewBox="0 0 1024 1024" version="1.1" xmlns="http://www.w3.org/2000/svg" p-id="5515" xmlns:xlink="http://www.w3.org/1999/xlink" width="16" height="16"><path d="M307.2 409.6a128 128 0 0 1 153.6 0l64 48a192 192 0 0 0 230.4 0l32-24a32 32 0 0 0-38.4-51.2l-32 24a128 128 0 0 1-153.6 0l-64-48a192 192 0 0 0-230.4 0l-32 24a32 32 0 0 0 38.4 51.2l32-24z m0 192a128 128 0 0 1 153.6 0l64 48a192 192 0 0 0 230.4 0l32-24a32 32 0 0 0-38.4-51.2l-32 24a128 128 0 0 1-153.6 0l-64-48a192 192 0 0 0-230.4 0l-32 24a32 32 0 0 0 38.4 51.2l32-24z" fill="#727e8b" p-id="5516"></path></svg>